<?xml version="1.0" encoding="UTF-8"?>
<svg id="Layer_1" data-name="Layer 1" xmlns="http://www.w3.org/2000/svg" viewBox="0 0 128 128">
	<defs>
		<style>
			.cls-1 {
			fill: #fff;
			}

			.cls-2 {
			fill: #15192b;
			}

			.cls-3 {
			fill: #ff00ec;
			}
		</style>
	</defs>
	<rect class="cls-2" width="128" height="128"/>
	<g>
		<path class="cls-3" d="M66.31,66.83c.07-.48.46-.83.93-.83h26.14c.51,0,.93.43.93.96v27.08c0,.48-.33.89-.79.96-14.85-.42-26.79-12.79-27.2-28.17Z"/>
		<path class="cls-1" d="M67.12,61.3c-.46-.07-.81-.47-.8-.94v-26.43c0-.52.42-.94.94-.94h26.43c.47,0,.87.34.94.81-.42,15.01-12.49,27.07-27.5,27.49Z"/>
		<path class="cls-1" d="M33.38,93.5c.07.47.47.81.94.81h26.44c.52,0,.94-.42.94-.94v-26.43c0-.47-.34-.87-.8-.94-15.01.41-27.09,12.48-27.51,27.5Z"/>
		<path class="cls-1" d="M34.19,33c-.46.07-.81.47-.8.94v26.43c0,.52.42.94.94.94h26.43c.47,0,.87-.34.94-.81-.42-15.01-12.49-27.07-27.5-27.49Z"/>
	</g>
</svg>
